# xmcd CD database file
#
# Track frame offsets:
#	150
#	13810
#	35285
#	50430
#	82228
#	107008
#	123283
#	139265
#	156155
#	178125
#	201255
#	218575
#	251023
#	269223
#	287615
#
# Disc length: 4268 seconds
#
# Revision: 4
# Processed by: cddbd v1.5.2PL0 Copyright (c) Steve Scherf et al.
# Submitted via: CDex 1.51
#
DISCID=e310aa0f
DTITLE=Art Tatum - Vol. 019 - The Genius Of Keyboard
DYEAR=1990
DGENRE=Jazz
TTITLE0=Blue Lou
TTITLE1=Gone With The Wind
TTITLE2=A Foggy Day
TTITLE3=September Song
TTITLE4=Love For Sale
TTITLE5=You Took Advantage Of Me
TTITLE6=Makin' Whoopee
TTITLE7=Willow Weep For Me
TTITLE8=Hallelujah
TTITLE9=Once In A While
TTITLE10=This Can't Be Love
TTITLE11=All The Things You Are
TTITLE12=My Blue Heaven
TTITLE13=I Cover The Waterfront
TTITLE14=Somebody Loves Me
EXTD=YEAR: 1990
EXTT0=
EXTT1=
EXTT2=
EXTT3=
EXTT4=
EXTT5=
EXTT6=
EXTT7=
EXTT8=
EXTT9=
EXTT10=
EXTT11=
EXTT12=
EXTT13=
EXTT14=
PLAYORDER=
